# 3ds Max Wavefront OBJ Exporter v0.99 - (c)2007 guruware
# File Created: 10.04.2025 21:32:45

#
# object Object167
#

v  -260.5016 15.9972 -548.2314
v  -260.5016 9.3551 -548.2314
v  -256.3637 9.3551 -548.2314
v  -256.3637 15.2576 -548.2314
v  -250.7027 9.3552 -546.1090
v  -250.7027 15.3555 -546.1090
v  -255.1363 15.8436 -551.8524
v  -255.1363 9.3551 -551.8524
v  -256.0559 9.3551 -547.7145
v  -256.0559 14.6060 -547.7145
v  -256.0559 9.3551 -543.5767
v  -256.0559 14.6060 -543.5767
# 12 vertices

vn -0.0000 -0.1736 0.9848
vn -0.1784 -0.1709 0.9690
vn -0.1698 -0.1711 0.9705
vn -0.3510 -0.1626 0.9221
vn -0.9762 0.0377 -0.2137
vn -0.9940 0.0189 -0.1075
vn -0.9930 0.0205 -0.1164
vn -1.0000 -0.0000 -0.0000
# 8 vertex normals

vt 0.2690 0.5169 0.0000
vt 0.2690 0.4774 0.0000
vt 0.2936 0.4774 0.0000
vt 0.2936 0.5125 0.0000
vt 0.3295 0.4774 0.0000
vt 0.3295 0.5131 0.0000
vt 0.3480 0.5289 0.0000
vt 0.3480 0.4904 0.0000
vt 0.3732 0.4904 0.0000
vt 0.3732 0.5216 0.0000
vt 0.3978 0.4904 0.0000
vt 0.3978 0.5216 0.0000
# 12 texture coords

o Object167
g Object167
s 1
f 1/1/1 2/2/1 3/3/2 4/4/3 
f 4/4/3 3/3/2 5/5/4 6/6/4 
f 7/7/5 8/8/5 9/9/6 10/10/7 
f 10/10/7 9/9/6 11/11/8 12/12/8 
# 4 polygons

