# 3ds Max Wavefront OBJ Exporter v0.99 - (c)2007 guruware
# File Created: 10.04.2025 21:33:39

#
# object Object166
#

v  -274.1172 14.2288 -553.1821
v  -274.1171 9.3551 -553.1821
v  -270.7276 9.3551 -550.8087
v  -270.7276 14.8370 -550.8087
v  -269.2175 9.3551 -546.5061
v  -269.2175 13.5871 -546.5061
# 6 vertices

vn -0.5736 -0.1422 0.8067
vn -0.7968 -0.1049 0.5950
vn -0.7881 -0.1069 0.6062
vn -0.9436 -0.0575 0.3261
# 4 vertex normals

vt 0.6213 0.4066 0.0000
vt 0.6212 0.3668 0.0000
vt 0.6563 0.3667 0.0000
vt 0.6564 0.4116 0.0000
vt 0.6937 0.3667 0.0000
vt 0.6937 0.4013 0.0000
# 6 texture coords

o Object166
g Object166
s 1
f 1/1/1 2/2/1 3/3/2 4/4/3 
f 4/4/3 3/3/2 5/5/4 6/6/4 
# 2 polygons

